:FULLY-SPECIFIED
:FORCE-ALL-JOINTS-BE-3DOF
:DEGREES
816
root -5.2459 14.5746 -39.9795 420.127 -70.8788 308.099
lfemur -68.8022 18.1576 -19.081
ltibia 82.5682 0 0
lfoot -5.4165 7.89593 0
ltoes -16.1223 0 0
rfemur -30.5557 -6.68652 19.6601
rtibia 74.1559 0 0
rfoot -31.5812 -24.2501 0
rtoes -22.8477 0 0
lowerback 17.6613 0.951825 3.05966
upperback 0.240592 2.05723 1.5889
thorax -9.68042 0.853188 -0.530616
lowerneck -2.3607 12.1345 4.57611
upperneck -1.26355 16.1357 -7.83235
head 1.12618 8.03244 -2.84849
lclavicle -5.7437e-15 1.09789e-15 0
lhumerus 97.8608 -24.0204 33.2382
lradius 82.4196 0 0
lwrist 4.26089 0 0
lhand -12.5516 24.3467 0
lfingers 7.12502 0 0
lthumb 13.5201 53.7978 0
rclavicle -5.7437e-15 1.09789e-15 0
rhumerus 13.2885 34.6629 -58.9349
rradius 68.7516 0 0
rwrist -14.0928 0 0
rhand -7.11389 -40.0207 0
rfingers 7.12502 0 0
rthumb 18.7251 -68.7345 0
817
root -4.94975 14.6128 -40.0666 413.606 -71.165 314.865
lfemur -69.1087 18.5771 -19.9903
ltibia 83.4972 0 0
lfoot -5.88267 8.25313 0
ltoes -16.0156 0 0
rfemur -31.2819 -7.238 20.3903
rtibia 73.8065 0 0
rfoot -31.8832 -24.8253 0
rtoes -22.6824 0 0
lowerback 17.7984 0.847917 3.35582
upperback 0.257261 1.96583 1.5091
thorax -9.72175 0.791845 -0.764833
lowerneck -2.32555 12.3155 4.70017
upperneck -1.33963 16.3764 -8.12266
head 1.14488 8.1524 -2.95322
lclavicle -3.95035e-15 2.36931e-15 0
lhumerus 99.547 -26.07 29.9704
lradius 86.3412 0 0
lwrist 7.07786 0 0
lhand -11.8593 24.1357 0
lfingers 7.12502 0 0
lthumb 14.188 53.5545 0
rclavicle -3.95035e-15 2.36931e-15 0
rhumerus 16.4685 35.6395 -58.4034
rradius 67.9201 0 0
rwrist -12.9741 0 0
rhand -8.32784 -40.0703 0
rfingers 7.12502 0 0
rthumb 17.5625 -68.9481 0
818
root -4.64342 14.6523 -40.1564 406.828 -71.4516 321.897
lfemur -69.4229 19.022 -20.9252
ltibia 84.4598 0 0
lfoot -6.37129 8.61592 0
ltoes -15.8949 0 0
rfemur -32.01 -7.81982 21.1479
rtibia 73.4132 0 0
rfoot -32.193 -25.4314 0
rtoes -22.5148 0 0
lowerback 17.9374 0.739545 3.67001
upperback 0.273089 1.87116 1.4285
thorax -9.76402 0.727942 -1.00929
lowerneck -2.29036 12.4993 4.82728
upperneck -1.41452 16.6208 -8.41981
head 1.16531 8.27424 -3.06038
lclavicle -2.05875e-15 3.6799e-15 0
lhumerus 101.268 -28.1856 26.6033
lradius 90.3918 0 0
lwrist 9.96621 0 0
lhand -11.1541 23.925 0
lfingers 7.12502 0 0
lthumb 14.8683 53.3104 0
rclavicle -2.05875e-15 3.6799e-15 0
rhumerus 19.7193 36.6477 -57.8799
rradius 67.0895 0 0
rwrist -11.8453 0 0
rhand -9.59588 -40.1135 0
rfingers 7.12502 0 0
rthumb 16.3482 -69.1631 0
819
root -4.32673 14.6932 -40.2488 399.788 -71.7384 329.2
lfemur -69.745 19.4929 -21.886
ltibia 85.4565 0 0
lfoot -6.88275 8.98424 0
ltoes -15.7599 0 0
rfemur -32.7394 -8.43269 21.9333
rtibia 72.9747 0 0
rfoot -32.5104 -26.069 0
rtoes -22.3449 0 0
lowerback 18.0781 0.626631 4.00265
upperback 0.288032 1.77318 1.34713
thorax -9.80725 0.661436 -1.26417
lowerneck -2.25516 12.6859 4.95747
upperneck -1.4881 16.8689 -8.72384
head 1.18752 8.39794 -3.16998
lclavicle -6.70295e-17 5.03019e-15 0
lhumerus 103.024 -30.3679 23.1358
lradius 94.5734 0 0
lwrist 12.9265 0 0
lhand -10.4362 23.7149 0
lfingers 7.12502 0 0
lthumb 15.5608 53.0657 0
rclavicle -6.70295e-17 5.03019e-15 0
rhumerus 23.041 37.6879 -57.3652
rradius 66.2604 0 0
rwrist -10.7071 0 0
rhand -10.9191 -40.15 0
rfingers 7.12502 0 0
rthumb 15.0811 -69.3793 0
820
root -3.9995 14.7355 -40.3438 392.481 -72.0251 336.779
lfemur -70.0748 19.9903 -22.8728
ltibia 86.4874 0 0
lfoot -7.41746 9.35807 0
ltoes -15.6101 0 0
rfemur -33.4696 -9.0773 22.7467
rtibia 72.4896 0 0
rfoot -32.8355 -26.739 0
rtoes -22.1726 0 0
lowerback 18.2205 0.509094 4.35415
upperback 0.302049 1.67182 1.26502
thorax -9.85144 0.59228 -1.52967
lowerneck -2.21999 12.8753 5.09074
upperneck -1.56026 17.1207 -9.03476
head 1.21157 8.52348 -3.28204
lclavicle 2.02666e-15 6.42071e-15 0
lhumerus 104.815 -32.6179 19.5667
lradius 98.8876 0 0
lwrist 15.9592 0 0
lhand -9.70569 23.5056 0
lfingers 7.12502 0 0
lthumb 16.2656 52.8204 0
rclavicle 2.02666e-15 6.42071e-15 0
rhumerus 26.4335 38.7604 -56.8599
rradius 65.4337 0 0
rwrist -9.55998 0 0
rhand -12.2985 -40.1795 0
rfingers 7.12502 0 0
rthumb 13.7601 -69.5966 0
821
root -3.66157 14.7792 -40.4415 384.902 -72.3114 344.638
lfemur -70.4123 20.5148 -23.8857
ltibia 87.5532 0 0
lfoot -7.97581 9.73737 0
ltoes -15.4451 0 0
rfemur -34.2003 -9.75434 23.5888
rtibia 71.9567 0 0
rfoot -33.1684 -27.4419 0
rtoes -21.998 0 0
lowerback 18.3645 0.386855 4.72491
upperback 0.315096 1.56706 1.18217
thorax -9.8966 0.520432 -1.80598
lowerneck -2.18488 13.0674 5.22711
upperneck -1.63087 17.3761 -9.35259
head 1.23752 8.65083 -3.39655
lclavicle 4.22417e-15 7.85199e-15 0
lhumerus 106.639 -34.9364 15.8949
lradius 103.336 0 0
lwrist 19.065 0 0
lhand -8.96267 23.2973 0
lfingers 7.12502 0 0
lthumb 16.9824 52.5749 0
rclavicle 4.22417e-15 7.85199e-15 0
rhumerus 29.8969 39.8657 -56.3648
rradius 64.61 0 0
rwrist -8.40454 0 0
rhand -13.7352 -40.2017 0
rfingers 7.12502 0 0
rthumb 12.3844 -69.8148 0
